<svg width="1160" height="280" viewBox="0 0 1160 280" fill="none" xmlns="http://www.w3.org/2000/svg">
  <defs>
    <linearGradient id="stroke" x1="40" y1="40" x2="1120" y2="240" gradientUnits="userSpaceOnUse">
      <stop stop-color="#37E1FF"/>
      <stop offset="1" stop-color="#7C89FF"/>
    </linearGradient>
  </defs>
  <rect width="1160" height="280" rx="42" fill="#081321"/>
  <path d="M62 52H216L164 118H198L254 118L180 228H24L96 160H66L52 160L124 52H62Z" stroke="url(#stroke)" stroke-width="12" stroke-linejoin="round"/>
  <path d="M175 98H208C224 98 237 111 237 127V127" stroke="url(#stroke)" stroke-width="8" stroke-linecap="round"/>
  <path d="M161 129H210C226 129 239 142 239 158V158" stroke="url(#stroke)" stroke-width="8" stroke-linecap="round"/>
  <path d="M145 160H194C210 160 223 173 223 189V189" stroke="url(#stroke)" stroke-width="8" stroke-linecap="round"/>
  <circle cx="247" cy="127" r="10" fill="#081321" stroke="url(#stroke)" stroke-width="7"/>
  <circle cx="247" cy="158" r="10" fill="#081321" stroke="url(#stroke)" stroke-width="7"/>
  <circle cx="231" cy="189" r="10" fill="#081321" stroke="url(#stroke)" stroke-width="7"/>
  <path d="M345.146 207V72.4551H396.652L430.032 164.191H431.427L464.808 72.4551H516.313V207H475.75V140.377L478.008 117.543H476.547L447.721 207H413.738L384.913 117.012H383.451L385.709 140.377V207H345.146ZM578.098 210.188C570.391 210.188 563.503 208.793 557.434 206.004C551.365 203.17 546.578 198.848 543.074 193.039C539.614 187.229 537.885 179.877 537.885 170.982V108.34H580.838V164.404C580.838 169.241 582.055 173.033 584.489 175.781C586.923 178.525 590.163 179.896 594.211 179.896C598.657 179.896 602.054 178.393 604.399 175.383C606.744 172.329 607.916 167.693 607.916 161.477V108.34H650.869V207H610.569L608.377 191.113H606.982C603.522 197.182 598.923 201.75 593.186 204.816C587.49 207.885 582.46 209.519 578.098 210.188ZM711.762 210.52C702.029 210.52 693.377 208.945 685.806 205.795C678.278 202.602 672.291 198.078 667.844 192.242C663.442 186.385 660.899 179.496 660.219 171.576H701.383C702.063 174.063 703.458 175.98 705.564 177.328C707.715 178.68 710.348 179.357 713.465 179.357C716.336 179.357 718.621 178.857 720.321 177.859C722.023 176.818 722.875 175.449 722.875 173.752C722.875 172.295 722.481 171.098 721.693 170.16C720.948 169.223 719.551 168.418 717.504 167.744C715.509 167.045 712.465 166.291 708.371 165.479L694.354 162.723C683.73 160.553 675.894 156.811 670.846 151.498C665.798 146.185 663.273 139.43 663.273 131.232C663.273 123.642 665.336 117.189 669.461 111.875C673.591 106.541 679.34 102.484 686.709 99.707C694.079 96.8848 702.531 95.4746 712.066 95.4746C721.273 95.4746 729.5 96.8848 736.747 99.707C743.999 102.484 749.73 106.541 753.942 111.875C758.198 117.189 760.725 123.664 761.521 131.299H722.211C721.567 128.91 720.394 127.098 718.694 125.863C716.994 124.615 714.714 123.992 711.862 123.992C709.327 123.992 707.321 124.479 705.846 125.453C704.37 126.387 703.632 127.623 703.632 129.162C703.632 130.408 704.006 131.453 704.753 132.299C705.544 133.15 706.979 133.898 709.058 134.543C711.136 135.189 714.242 135.908 718.377 136.701L729.232 138.859C741.221 141.228 749.901 145.154 755.273 150.641C760.686 156.131 763.393 162.922 763.393 171.01C763.393 178.84 761.187 185.568 756.775 191.195C752.37 196.822 746.231 201.145 738.36 204.16C730.536 207.174 721.669 209.295 711.762 210.52ZM804.708 207V140.643H775.616V108.34H877.722V140.643H848.629V207H804.708ZM899.649 207V108.34H942.602V207H899.649ZM921.13 97.5664C914.335 97.5664 908.915 95.708 904.87 91.9912C900.825 88.2754 898.802 83.6738 898.802 78.1865C898.802 72.5684 900.825 67.9531 904.87 64.3408C908.915 60.668 914.335 58.8311 921.13 58.8311C927.881 58.8311 933.279 60.668 937.324 64.3408C941.37 67.9531 943.392 72.5684 943.392 78.1865C943.392 83.6738 941.37 88.2754 937.324 91.9912C933.279 95.708 927.881 97.5664 921.13 97.5664ZM959.632 207V108.34H999.932L1002.12 124.229H1003.52C1006.98 118.158 1011.55 113.59 1017.22 110.525C1022.92 107.455 1027.97 105.82 1032.37 105.621C1040.08 105.621 1046.97 107.037 1053.04 109.873C1059.11 112.662 1063.87 116.982 1067.33 122.836C1070.83 128.646 1072.57 135.977 1072.57 144.83V207H1029.62V150.938C1029.62 146.1 1028.4 142.33 1025.97 139.627C1023.58 136.84 1020.34 135.445 1016.25 135.445C1011.81 135.445 1008.43 136.992 1006.11 140.08C1003.79 143.09 1002.63 147.682 1002.63 153.855V207H959.632Z" fill="white"/>
</svg>
